# xmcd CD database file
# Copyright (C) 1996 Ti Kan
#
# Track frame offsets:
#  183
#  13578
#  27150
#  40180
#  53615
#  65963
#  79923
#  94683
#  107123
#  120770
#  133423
#  147413
#  160863
#  172733
#  187330
#  200805
#  212103
#  226335
#  239935
#  253163
#  266330
#  279518
#  291233
#  304798
#
# Disc length: 4224 seconds
#
# Revision: 2
# Processed by: cddbd v1.4b41PL1 Copyright (c) Steve Scherf et al.
# Submitted via: CDWizzard Release:4.12
#
DISCID=6c107e18
DTITLE=Roy Brown - Blues Deluxe
DYEAR=1900
DGENRE=
TTITLE0=Cadillac Baby
TTITLE1=Hard Luck Blues
TTITLE2=New Rebecca
TTITLE3=Sweet Peach
TTITLE4=Love Don't Love Nobody
TTITLE5=Dreaming Blues
TTITLE6=Good Man Blues
TTITLE7=Too Much Loving Ain't Good
TTITLE8=Teenage Jamboree
TTITLE9=Train Time Blues
TTITLE10=Bar Room Blues
TTITLE11=Long About Sundown
TTITLE12=Beautician Blues
TTITLE13=Drum Boogie
TTITLE14=Double Crossin' Woman
TTITLE15=Swingin' With Johnny
TTITLE16=Wrong Woman Blues
TTITLE17=Good Rockin' Man
TTITLE18=I've Got The Last Laugh Now
TTITLE19=Big Town
TTITLE20=Brown Angel
TTITLE21=Rock-A-Bye Baby
TTITLE22=Lonesome Lover
TTITLE23=Answer To Big Town
EXTD=
EXTT0=
EXTT1=
EXTT2=
EXTT3=
EXTT4=
EXTT5=
EXTT6=
EXTT7=
EXTT8=
EXTT9=
EXTT10=
EXTT11=
EXTT12=
EXTT13=
EXTT14=
EXTT15=
EXTT16=
EXTT17=
EXTT18=
EXTT19=
EXTT20=
EXTT21=
EXTT22=
EXTT23=
PLAYORDER=
